<svg width="163" height="230" viewBox="0 0 163 230" fill="none" xmlns="http://www.w3.org/2000/svg">
<g clip-path="url(#clip0_180392_249814)">
<path d="M23.0482 155.886V157.425H22.5905C21.8 157.425 21.0513 157.217 20.3856 156.843C19.72 156.469 19.179 155.928 18.8046 155.221C18.5134 155.304 17.8893 155.387 16.9325 155.512L16.059 155.637C15.9757 155.637 15.8509 155.678 15.6429 155.678C14.9357 155.678 14.2284 155.428 13.5628 154.929C12.8971 154.43 12.4394 153.806 12.2314 153.099C12.1066 152.683 12.0234 152.308 12.0234 151.934C12.0234 151.143 12.2731 150.436 12.7307 149.77C13.1884 149.105 13.8123 148.647 14.5196 148.397L18.1391 147.233V146.068H19.5536V152.891C19.5536 153.723 19.8448 154.388 20.4273 154.971C21.0097 155.553 21.7168 155.845 22.5488 155.845H23.0482V155.886ZM18.2638 153.764C18.2222 153.473 18.1805 153.224 18.1805 152.932V148.772L15.0189 149.854C14.5196 150.02 14.1451 150.27 13.8539 150.686C13.5627 151.06 13.4379 151.476 13.4379 151.934C13.4379 152.183 13.4795 152.391 13.5211 152.558C13.6459 153.015 13.8955 153.39 14.3116 153.681C14.7276 153.972 15.1437 154.139 15.6429 154.139C15.7677 154.139 15.8924 154.139 15.934 154.097C16.3917 154.014 17.1405 153.889 18.2638 153.764Z" fill="white"/>
<path d="M31.6181 155.887V157.427H23.0479V155.887H31.6181Z" fill="white"/>
<path d="M35.6948 155.887V157.427H31.3682V155.887H35.6948Z" fill="white"/>
<path d="M47.9265 157.425C45.9712 157.425 44.5568 157.383 43.6415 157.258C42.7263 157.175 42.0191 156.884 41.4366 156.468C40.5214 156.759 39.6061 157.009 38.6908 157.175C37.734 157.341 36.9018 157.425 36.1114 157.425H35.6953V155.885H36.1114C37.6091 155.885 39.0651 155.719 40.438 155.386L37.2764 151.143L37.6507 149.936L43.3502 149.104C43.4334 149.104 43.5582 149.062 43.7662 149.062C44.2655 149.062 44.7233 149.188 45.1809 149.438C45.5969 149.687 45.9297 150.061 46.1793 150.477C46.429 150.893 46.5537 151.393 46.5537 151.893C46.5537 152.267 46.4705 152.683 46.3041 153.016C45.9296 153.973 44.8896 154.845 43.2671 155.677C43.6832 155.76 44.224 155.802 44.8896 155.802C45.5553 155.802 46.5538 155.844 47.8851 155.844V157.425H47.9265ZM41.9774 154.929C42.8095 154.596 43.5168 154.221 44.0992 153.805C44.64 153.348 45.0143 152.849 45.2223 152.309C45.3056 152.101 45.3473 151.934 45.3473 151.768C45.3473 151.393 45.1808 151.059 44.8896 150.768C44.5984 150.519 44.2656 150.394 43.8495 150.477L39.0652 151.143L41.9774 154.929Z" fill="white"/>
<path d="M57.7868 155.887V157.427H47.4277V155.887H57.7868Z" fill="white"/>
<path d="M74.0943 153.805C74.0943 154.596 73.9277 155.261 73.5533 155.802C73.1789 156.343 72.7213 156.759 72.1388 157.009C71.5564 157.258 70.9324 157.425 70.3084 157.425C69.6843 157.425 69.1435 157.3 68.6442 157.05C68.145 156.801 67.729 156.468 67.4378 156.01C66.7722 156.926 65.8153 157.425 64.484 157.425C63.8599 157.425 63.2774 157.3 62.7782 157.05C62.279 156.801 61.9046 156.468 61.5718 156.01C60.9061 156.967 59.9492 157.425 58.5763 157.425H57.4531V155.885H58.5763C60.074 155.885 60.8229 155.22 60.9061 153.93V153.722V150.81H62.1958V153.722V153.93C62.1958 154.513 62.4038 155.012 62.7782 155.345C63.1526 155.719 63.735 155.885 64.4007 155.885C65.94 155.885 66.7305 155.178 66.7305 153.722V150.81H68.0618V153.722V153.93C68.0618 154.513 68.2698 155.012 68.6442 155.345C69.0187 155.719 69.5595 155.885 70.2667 155.885C70.9324 155.885 71.5148 155.719 71.9725 155.386C72.4301 155.053 72.6382 154.512 72.6382 153.805C72.6382 153.472 72.555 153.098 72.4301 152.557L71.4732 149.021L72.8045 148.646L73.7613 152.183C74.0109 152.765 74.0943 153.306 74.0943 153.805Z" fill="white"/>
<path d="M86.4095 157.425H85.1199V157.508C85.1615 157.924 85.1614 158.215 85.1614 158.382C85.1614 159.463 84.9118 160.295 84.371 160.919C83.8301 161.543 83.0812 162.002 82.0412 162.335C81.0011 162.668 79.5034 163.083 77.5065 163.499L77.2154 162.001C79.1291 161.627 80.5019 161.294 81.2924 161.044C82.1244 160.795 82.7068 160.503 83.1229 160.087C83.5389 159.671 83.7469 159.13 83.7469 158.382C83.7469 158.257 83.7469 158.007 83.7053 157.716L83.6638 157.466H80.377C79.2122 157.466 78.2971 157.134 77.6314 156.426C76.9658 155.719 76.6328 154.763 76.6328 153.557C76.6328 152.808 76.7993 152.1 77.1321 151.434C77.4649 150.768 77.9225 150.229 78.5049 149.812C79.0874 149.396 79.7946 149.188 80.5851 149.188C81.6667 149.188 82.6236 149.603 83.3309 150.477C84.0797 151.309 84.5375 152.433 84.6623 153.848L84.9119 156.01H86.368V157.425H86.4095ZM83.4973 155.885L83.2892 153.93C83.1644 152.89 82.8733 152.101 82.3741 151.518C81.8749 150.936 81.2509 150.645 80.5436 150.645C79.7532 150.645 79.129 150.936 78.7129 151.477C78.2553 152.059 78.0474 152.725 78.0474 153.473C78.0474 155.054 78.8377 155.844 80.377 155.844H83.4973V155.885Z" fill="white"/>
<path d="M96.7263 155.887V157.427H86.1592V155.887H96.7263Z" fill="white"/>
<path d="M97.8915 155.885C98.6819 155.885 99.3477 155.719 99.8469 155.386C100.346 155.053 100.596 154.512 100.596 153.722C100.596 153.347 100.554 152.973 100.429 152.557L99.514 149.021L100.845 148.646L101.802 152.224C101.927 152.807 102.01 153.306 102.01 153.764C102.01 154.928 101.594 155.844 100.804 156.426C99.9716 157.05 99.0147 157.341 97.8499 157.341H94.4385V155.802H97.8915V155.885ZM96.3523 145.443L97.5588 144.236L98.8068 145.443L97.5588 146.691L96.3523 145.443ZM100.221 145.443L101.428 144.236L102.676 145.443L101.428 146.691L100.221 145.443Z" fill="white"/>
<path d="M118.568 151.392C118.901 152.016 119.067 152.724 119.067 153.514C119.067 154.221 118.901 154.887 118.568 155.469C118.235 156.052 117.736 156.551 117.154 156.884C116.571 157.258 115.906 157.425 115.24 157.425C114.533 157.425 113.909 157.258 113.326 156.884C112.744 156.509 112.286 156.052 111.912 155.469C111.579 154.887 111.412 154.221 111.412 153.514C111.412 152.89 111.579 152.266 111.87 151.642C112.161 151.018 112.619 150.435 113.201 149.894L114.366 148.771L113.493 147.898L114.45 146.816L117.029 149.354C117.736 150.103 118.235 150.768 118.568 151.392ZM116.987 155.22C117.445 154.762 117.694 154.18 117.694 153.514C117.694 153.015 117.57 152.557 117.362 152.141C117.154 151.725 116.696 151.143 116.03 150.519L115.282 149.77L114.158 150.893C113.201 151.85 112.744 152.724 112.744 153.556C112.744 154.221 112.993 154.804 113.451 155.261C113.95 155.719 114.533 155.969 115.198 155.969C115.906 155.927 116.488 155.677 116.987 155.22Z" fill="white"/>
<path d="M130.508 158.341C130.508 159.423 130.259 160.296 129.718 160.879C129.177 161.503 128.428 161.96 127.388 162.335C126.348 162.709 124.85 163.084 122.853 163.5L122.562 162.002C124.476 161.627 125.849 161.295 126.681 161.045C127.513 160.795 128.137 160.462 128.511 160.046C128.886 159.63 129.094 159.048 129.094 158.258C129.094 158.008 129.094 157.842 129.052 157.675L128.969 157.093C127.929 157.301 126.847 157.384 125.724 157.384C124.6 157.384 123.727 157.009 123.02 156.302C122.312 155.553 121.979 154.638 121.979 153.473C121.979 152.724 122.146 152.017 122.479 151.351C122.812 150.686 123.269 150.145 123.852 149.729C124.434 149.313 125.141 149.105 125.932 149.105C127.055 149.105 127.97 149.521 128.719 150.395C129.468 151.227 129.926 152.35 130.092 153.765L130.508 157.55C130.466 157.925 130.508 158.174 130.508 158.341ZM128.844 155.553L128.678 153.931C128.553 152.891 128.262 152.059 127.762 151.476C127.263 150.894 126.639 150.603 125.89 150.603C125.1 150.603 124.517 150.894 124.06 151.476C123.602 152.059 123.394 152.724 123.394 153.473C123.394 154.181 123.602 154.763 124.018 155.221C124.434 155.637 125.017 155.886 125.724 155.886C126.722 155.886 127.721 155.761 128.844 155.553Z" fill="white"/>
<path d="M140.784 155.886V157.426H140.618C140.035 157.426 139.578 157.343 139.203 157.176L139.245 157.509C139.286 157.842 139.328 158.133 139.328 158.424C139.328 159.464 139.078 160.296 138.538 160.962C137.997 161.586 137.331 162.085 136.499 162.418C135.667 162.751 134.585 163.125 133.212 163.5L132.838 162.002L133.462 161.836C134.544 161.545 135.376 161.295 135.916 161.087C136.499 160.879 136.957 160.546 137.331 160.088C137.706 159.672 137.872 159.09 137.872 158.341C137.872 158.216 137.872 158.008 137.83 157.717L136.873 150.894L138.288 150.686L138.662 153.515C138.787 154.181 138.912 154.68 139.037 155.013C139.161 155.346 139.37 155.554 139.578 155.678C139.786 155.803 140.118 155.886 140.576 155.886H140.784Z" fill="white"/>
<path d="M147.898 152.225C148.314 152.891 148.522 153.598 148.522 154.305C148.522 154.763 148.439 155.179 148.273 155.553C148.106 155.928 147.857 156.302 147.524 156.552C146.983 157.134 146.234 157.384 145.319 157.384H140.534V155.845H145.319C145.735 155.845 146.068 155.761 146.317 155.553C146.567 155.387 146.733 155.179 146.858 154.929C146.983 154.68 147.066 154.43 147.066 154.139C147.066 153.764 146.983 153.432 146.775 153.14L141.491 145.652L141.783 144.487L150.353 141.325L150.852 142.781L143.239 145.569L147.898 152.225ZM148.148 139.703L148.397 140.368L142.656 142.448L142.407 141.783L148.148 139.703Z" fill="white"/>
<path d="M17.6391 185.049C16.7239 185.007 16.0167 184.965 15.6006 184.882C15.1846 184.799 14.7686 184.674 14.3942 184.508C13.687 184.217 13.1876 183.801 12.8548 183.218C12.522 182.677 12.3555 182.012 12.3555 181.221C12.3555 180.764 12.4387 180.264 12.5635 179.724L13.4372 176.395L14.7686 176.811L13.8949 180.181C13.7701 180.556 13.7285 180.93 13.7285 181.304C13.7285 182.136 14.1445 182.719 14.9766 183.093C15.2678 183.218 15.5589 183.301 15.8917 183.385C16.2246 183.468 16.8486 183.509 17.7639 183.551C18.6791 183.592 20.0105 183.593 21.7994 183.593V185.132C19.9689 185.132 18.5544 185.09 17.6391 185.049ZM18.6376 176.27L19.844 175.064L21.0921 176.27L19.844 177.518L18.6376 176.27ZM25.8764 183.509C26.7501 183.468 27.3743 183.426 27.7071 183.343C28.0399 183.26 28.331 183.177 28.6223 183.052C29.0799 182.844 29.3712 182.636 29.5792 182.344C29.7873 182.053 29.8703 181.679 29.8703 181.263C29.8703 180.93 29.7871 180.555 29.6623 180.015L28.7472 176.728L30.0784 176.354L30.9937 179.64C31.1601 180.223 31.2434 180.763 31.2434 181.263C31.2434 182.012 31.0768 182.677 30.7024 183.218C30.328 183.759 29.8289 184.175 29.1632 184.466C28.7888 184.633 28.3726 184.757 27.9566 184.841C27.5405 184.924 26.875 184.965 25.9597 185.007C25.0445 185.049 23.63 185.049 21.7994 185.049V183.509C23.63 183.593 25.0028 183.551 25.8764 183.509ZM22.5482 176.27L23.7548 175.064L25.0029 176.27L23.7548 177.518L22.5482 176.27Z" fill="white"/>
<path d="M35.9445 184.716C35.4036 184.425 34.9876 183.967 34.738 183.343C34.4884 182.719 34.322 181.804 34.2804 180.681L33.8643 169.822L35.2788 169.781L35.6948 180.681C35.7364 181.513 35.8197 182.137 35.9445 182.553C36.0693 182.969 36.319 183.218 36.6518 183.385C36.9846 183.551 37.5254 183.634 38.2743 183.634H38.5239V185.174H38.2743C37.2758 185.132 36.4853 184.966 35.9445 184.716Z" fill="white"/>
<path d="M44.3491 183.594V185.133H38.2334V183.594H44.3491Z" fill="white"/>
<path d="M51.0462 184.842L50.5471 184.925C49.3822 185.05 47.1773 185.091 43.9322 185.133H43.6826V183.594H43.9322L47.3019 183.51C46.8443 182.928 46.5116 182.262 46.3868 181.513C46.3452 181.264 46.3035 181.014 46.3035 180.765C46.3035 179.766 46.5948 178.893 47.2188 178.102C47.8429 177.353 48.6332 176.895 49.6317 176.687C49.8397 176.646 50.0479 176.646 50.1727 176.646C51.0047 176.646 52.0863 176.812 53.4176 177.187L53.0432 178.684C51.5455 178.31 50.5055 178.144 49.923 178.227C49.2574 178.31 48.7166 178.601 48.3005 179.059C47.8845 179.517 47.6765 180.099 47.6765 180.723C47.6765 181.472 47.926 182.096 48.4253 182.595C48.9245 183.094 49.5485 183.344 50.2558 183.344C50.3806 183.344 50.5471 183.344 50.7551 183.302L54.7904 182.553L55.0817 184.051L51.0462 184.842Z" fill="white"/>
<path d="M58.2446 182.18L56.4141 170.822L57.7869 170.531L59.6174 181.888L58.2446 182.18ZM69.5604 183.594V185.133H69.103C68.5205 185.133 67.9795 185.009 67.4803 184.759C66.981 184.509 66.5652 184.177 66.1908 183.677C65.5251 184.634 64.485 185.133 63.0705 185.133H57.4125V183.594H63.0705C63.9858 183.594 64.6098 183.386 64.9427 182.97C65.2755 182.554 65.4417 182.055 65.4001 181.472L64.9427 169.782L66.3155 169.699L66.7731 181.223C66.8148 182.055 67.0226 182.637 67.4803 183.012C67.9379 183.386 68.4373 183.552 69.103 183.552H69.5604V183.594Z" fill="white"/>
<path d="M79.5443 177.354C80.1684 177.728 80.6676 178.269 81.0421 178.893C81.4165 179.559 81.583 180.307 81.583 181.098C81.583 181.805 81.3748 182.429 81.0004 183.053C80.626 183.677 80.1269 184.177 79.5029 184.551C78.8788 184.925 78.213 185.092 77.4642 185.092H68.1035V183.552H70.3917L71.1407 182.554L70.6413 169.782L72.0558 169.699L72.4718 180.682C73.1375 179.767 73.6783 179.059 74.1359 178.519C74.5936 177.978 75.1345 177.562 75.6753 177.271C76.2162 176.979 76.8402 176.813 77.5058 176.813C78.2131 176.813 78.9203 176.979 79.5443 177.354ZM78.7539 183.22C79.1699 182.97 79.5027 182.679 79.7523 182.304C80.0019 181.93 80.1269 181.514 80.1269 181.14C80.1269 180.349 79.8772 179.684 79.3779 179.143C78.8787 178.602 78.213 178.352 77.4642 178.352C76.9649 178.352 76.4657 178.477 76.0497 178.768C75.6337 179.059 75.2177 179.434 74.8433 179.891C74.4688 180.391 73.9279 181.098 73.3039 182.013L72.1807 183.552H77.5058C77.9218 183.594 78.3379 183.469 78.7539 183.22Z" fill="white"/>
<path d="M87.6576 169.699L88.2402 185.092L86.8256 185.175L86.2432 169.782L87.6576 169.699Z" fill="white"/>
<path d="M99.5553 190.958C97.808 190.958 96.4767 190.418 95.4783 189.294C94.4798 188.171 93.9805 186.672 93.9805 184.717C93.9805 183.303 94.2718 181.764 94.8542 180.058L96.1854 180.558C95.6446 182.097 95.3533 183.512 95.3533 184.76C95.3533 186.216 95.7278 187.381 96.4351 188.171C97.1423 189.003 98.1823 189.377 99.5136 189.377C100.013 189.377 100.596 189.294 101.22 189.169C102.634 188.837 103.799 188.421 104.631 187.963C105.463 187.505 105.879 187.089 105.879 186.715C105.879 186.548 105.796 186.382 105.588 186.257C105.38 186.132 105.047 186.007 104.59 185.84C104.09 185.674 103.508 185.509 102.884 185.342C101.885 185.051 101.137 184.676 100.637 184.26C100.138 183.844 99.8882 183.261 99.8882 182.471C99.8882 181.971 99.9713 181.473 100.138 180.891C100.304 180.308 100.596 179.726 101.012 179.102C101.428 178.478 101.927 177.937 102.593 177.479C103.258 177.022 104.007 176.812 104.839 176.812C105.255 176.812 105.671 176.855 106.087 176.98L107.626 177.396L107.252 178.894L105.713 178.478C105.38 178.394 105.047 178.353 104.756 178.353C103.799 178.353 103.05 178.686 102.509 179.393C101.969 180.1 101.636 180.724 101.428 181.348C101.345 181.723 101.303 182.014 101.303 182.264C101.303 182.763 101.469 183.136 101.802 183.344C102.135 183.552 102.676 183.76 103.508 184.01C104.59 184.343 105.338 184.593 105.796 184.76C106.212 184.926 106.586 185.133 106.836 185.383C107.086 185.632 107.252 185.966 107.294 186.424L107.335 186.715C107.335 187.589 106.836 188.379 105.796 189.086C104.798 189.794 103.383 190.376 101.553 190.792C100.887 190.875 100.221 190.958 99.5553 190.958Z" fill="white"/>
<path d="M109.374 189.543C110.456 189.252 111.288 189.002 111.828 188.794C112.411 188.586 112.868 188.253 113.243 187.795C113.617 187.379 113.784 186.797 113.784 186.048C113.784 185.923 113.784 185.715 113.742 185.424L112.785 178.601L114.2 178.393L115.115 185.216C115.157 185.549 115.198 185.84 115.198 186.131C115.198 187.171 114.949 188.003 114.408 188.669C113.867 189.293 113.201 189.792 112.369 190.125C111.537 190.458 110.455 190.832 109.083 191.207L108.708 189.709L109.374 189.543Z" fill="white"/>
<path d="M126.223 186.049C126.223 187.131 125.974 188.005 125.433 188.587C124.892 189.211 124.143 189.669 123.103 190.043C122.063 190.418 120.565 190.792 118.568 191.208L118.277 189.71C120.191 189.336 121.564 189.003 122.396 188.753C123.228 188.504 123.852 188.171 124.226 187.755C124.601 187.339 124.809 186.757 124.809 185.965C124.809 185.717 124.809 185.549 124.767 185.383L124.684 184.801C123.644 185.009 122.562 185.092 121.439 185.092C120.316 185.092 119.442 184.717 118.735 184.01C118.027 183.261 117.695 182.347 117.695 181.182C117.695 180.433 117.861 179.726 118.194 179.06C118.527 178.394 118.984 177.854 119.567 177.438C120.149 177.021 120.856 176.812 121.647 176.812C122.77 176.812 123.685 177.23 124.434 178.103C125.183 178.977 125.641 180.058 125.807 181.473L126.223 185.258C126.223 185.632 126.223 185.883 126.223 186.049ZM124.601 183.262L124.434 181.639C124.309 180.599 124.018 179.809 123.519 179.185C123.02 178.602 122.396 178.311 121.647 178.311C120.856 178.311 120.274 178.602 119.816 179.185C119.359 179.767 119.151 180.433 119.151 181.182C119.151 181.889 119.359 182.47 119.775 182.928C120.191 183.344 120.773 183.594 121.48 183.594C122.437 183.594 123.477 183.47 124.601 183.262Z" fill="white"/>
<path d="M131.049 184.716C130.508 184.425 130.092 183.967 129.843 183.343C129.593 182.719 129.427 181.804 129.385 180.681L128.969 169.822L130.383 169.781L130.799 180.681C130.841 181.513 130.924 182.137 131.049 182.553C131.174 182.969 131.423 183.218 131.756 183.385C132.089 183.551 132.63 183.634 133.379 183.634H133.628V185.174H133.379C132.38 185.132 131.632 184.966 131.049 184.716Z" fill="white"/>
<path d="M139.203 183.094C139.536 183.426 140.118 183.593 140.909 183.593V185.132C139.536 185.132 138.579 184.716 137.955 183.842C137.622 184.258 137.206 184.549 136.665 184.799C136.166 185.007 135.542 185.132 134.835 185.132H133.337V183.593H134.835C136.499 183.593 137.289 182.927 137.165 181.554V181.513L136.915 178.6L138.288 178.476L138.538 181.388V181.429C138.621 182.22 138.829 182.761 139.203 183.094ZM135.126 174.898L136.499 173.525L137.872 174.898L136.499 176.271L135.126 174.898Z" fill="white"/>
<path d="M150.269 182.095C150.269 182.844 150.145 183.426 149.853 183.884C149.604 184.3 149.105 184.633 148.439 184.841C147.773 185.049 146.775 185.132 145.527 185.132H140.618V183.593H145.527C146.484 183.593 147.191 183.551 147.649 183.468C148.106 183.385 148.439 183.218 148.647 183.01C148.813 182.802 148.938 182.47 148.938 182.012C148.938 181.887 148.938 181.679 148.897 181.346C148.023 181.513 146.983 181.596 145.735 181.596C144.653 181.596 143.78 181.263 143.114 180.597C142.448 179.932 142.115 179.058 142.115 177.935C142.115 177.144 142.24 176.437 142.573 175.771C142.864 175.106 143.322 174.565 143.904 174.149C144.487 173.733 145.194 173.525 146.026 173.525C147.108 173.525 147.981 173.941 148.73 174.773C149.479 175.605 149.895 176.687 150.02 178.06L150.269 180.972C150.269 181.305 150.269 181.637 150.269 182.095ZM144.029 179.557C144.445 179.973 145.028 180.223 145.735 180.223C146.858 180.223 147.857 180.14 148.772 179.932L148.647 178.268C148.522 177.269 148.231 176.479 147.732 175.896C147.233 175.314 146.608 175.022 145.901 175.022C145.111 175.022 144.528 175.314 144.071 175.855C143.613 176.437 143.405 177.103 143.405 177.852C143.405 178.559 143.613 179.141 144.029 179.557ZM145.901 171.528L144.487 170.197L145.901 168.824L147.233 170.197L145.901 171.528Z" fill="white"/>
<path d="M24.1709 228.941C22.5484 229.357 21.0506 229.44 19.6777 229.232C18.3464 229.024 17.1398 228.65 16.0998 228.026C15.0597 227.402 14.2278 226.569 13.5622 225.488C12.8965 224.406 12.4387 223.158 12.1475 221.827C11.8563 220.454 11.8147 218.956 11.9811 217.25C12.1475 215.545 12.5635 213.797 13.1876 211.925L17.6808 213.714C16.3911 217.458 16.2247 220.204 17.2231 222.035C18.2216 223.865 20.177 224.406 23.0892 223.74C25.4605 223.2 26.9582 222.742 27.5822 222.284C28.2062 221.827 28.4143 220.995 28.2895 219.746L26.9165 210.635L31.5761 209.887C32.325 214.879 32.7825 217.916 32.9489 219.039C33.365 221.91 32.8242 224.115 31.4097 225.571C29.9536 227.027 27.5407 228.15 24.1709 228.941ZM21.8827 212.841L18.5545 209.512L21.8827 206.184L25.211 209.512L21.8827 212.841Z" fill="white"/>
<path d="M43.3499 221.119C40.9369 221.119 39.1898 220.536 38.1081 219.329C37.068 218.165 36.4855 216.126 36.3607 213.297L35.7783 198.029L40.5626 197.779L41.145 213.297C41.145 214.504 41.2698 215.211 41.4778 215.419C41.6858 215.668 42.3098 215.752 43.3499 215.752H43.6829V221.077H43.3499V221.119Z" fill="white"/>
<path d="M56.663 215.794V221.12C54.9573 221.12 53.5844 220.704 52.5027 219.871C51.2962 220.704 49.8818 221.12 48.176 221.12H42.0605V215.794H48.176C48.9665 215.794 49.5075 215.711 49.7571 215.545C50.0067 215.378 50.1314 215.087 50.0898 214.629L49.7154 210.552L54.4581 210.053L54.8325 214.13C54.8325 214.255 54.8326 214.338 54.8742 214.38C54.9158 214.962 55.0406 215.378 55.2902 215.503C55.4566 215.711 55.9557 215.794 56.663 215.794ZM48.717 204.603L45.7632 207.515L42.8926 204.603L45.7632 201.691L48.717 204.603ZM55.6229 204.603L52.7107 207.515L49.7985 204.603L52.7107 201.691L55.6229 204.603Z" fill="white"/>
<path d="M79.8355 211.802C80.5843 214.423 80.2932 216.627 79.0867 218.416C77.8386 220.205 76.008 221.121 73.595 221.121C72.0141 221.121 70.6828 220.621 69.6011 219.664C68.5194 220.621 67.1883 221.121 65.5658 221.121C64.0265 221.121 62.7366 220.621 61.6549 219.581C60.5316 220.58 59.1588 221.121 57.5363 221.121H55.9971V215.795H57.5363C58.3267 215.795 58.826 215.671 59.034 215.463C59.2836 215.255 59.3668 214.88 59.3668 214.381V210.262H63.86V214.381C63.86 215.296 64.4425 215.754 65.5658 215.754C66.3146 215.754 66.8137 215.629 67.0633 215.421C67.3129 215.213 67.4379 214.88 67.4379 214.422V214.339V210.221H71.8893V214.339V214.464C71.8893 214.922 72.014 215.213 72.2637 215.421C72.5133 215.629 72.9709 215.712 73.5534 215.712C74.4271 215.712 74.9679 215.546 75.2591 215.171C75.5088 214.797 75.5088 214.131 75.2591 213.091L73.9278 208.14L78.5041 206.768L79.8355 211.802Z" fill="white"/>
<path d="M83.3721 215.793H92.6911C93.856 215.793 94.272 215.294 93.8975 214.337C93.5231 213.38 92.9408 212.174 92.1087 210.717C91.2766 209.261 90.5278 208.055 89.8622 207.098L88.8638 205.642L92.6911 202.48C93.0239 202.938 93.4816 203.562 94.0225 204.352C94.5633 205.143 95.3537 206.474 96.4354 208.346C97.517 210.218 98.1826 211.841 98.4739 213.089C99.0147 215.335 98.6819 217.207 97.4754 218.788C96.2689 220.328 94.4385 221.118 91.984 221.118H84.2041" fill="white"/>
<path d="M99.5137 229.565L98.2656 224.407C101.012 223.616 102.759 223.034 103.466 222.576C104.173 222.119 104.465 221.287 104.298 220.08L102.967 210.553L107.627 209.846L108.958 219.456C109.166 220.954 109.124 222.202 108.833 223.283C108.542 224.365 107.959 225.28 107.127 226.071C106.295 226.861 105.255 227.485 104.09 228.026C102.925 228.525 101.386 229.066 99.5137 229.565Z" fill="white"/>
<path d="M113.285 221.285L112.369 198.029L117.112 197.779L118.027 221.035L113.285 221.285Z" fill="white"/>
<path d="M129.801 215.793H129.967V221.118H129.801C129.551 221.118 129.343 221.118 129.219 221.077C129.26 223.365 128.47 225.112 126.972 226.319C125.433 227.525 123.02 228.607 119.65 229.564L118.402 224.405C121.148 223.614 122.895 223.032 123.602 222.574C124.309 222.117 124.601 221.285 124.434 220.078L123.103 210.551L127.762 209.844L127.929 210.926C128.22 213.089 128.47 214.42 128.678 214.92C128.927 215.502 129.302 215.793 129.801 215.793ZM128.511 204.227L125.183 207.556L121.896 204.227L125.183 200.941L128.511 204.227Z" fill="white"/>
<path d="M147.232 209.138C148.813 209.97 149.937 211.259 150.519 213.007C151.101 214.796 151.018 216.46 150.269 218.124C149.479 219.788 148.273 220.953 146.65 221.535C145.028 222.159 143.405 222.076 141.824 221.327L138.413 219.746C136.416 220.662 134.211 221.119 131.798 221.119H129.676V215.794H131.798H132.006C131.34 214.796 130.924 213.672 130.799 212.466C130.675 211.218 130.924 210.011 131.465 208.847C132.089 207.474 133.087 206.392 134.336 205.685L135.542 202.98L147.232 209.138ZM139.203 212.716C139.411 212.258 139.411 211.842 139.286 211.384C139.12 210.927 138.829 210.594 138.371 210.344C137.83 210.095 137.373 210.011 136.915 210.095C136.457 210.219 136.166 210.469 135.958 210.843C135.708 211.259 135.667 211.717 135.792 212.133C135.916 212.591 136.249 212.924 136.748 213.173L138.371 214.005C138.662 213.756 138.954 213.298 139.203 212.716ZM146.068 216.085C146.276 215.711 146.276 215.337 146.109 214.879C145.943 214.421 145.61 214.047 145.111 213.797L143.946 213.215C143.821 213.839 143.655 214.421 143.405 214.921C143.197 215.378 142.947 215.836 142.656 216.293L143.696 216.834C144.112 217.042 144.57 217.084 145.028 216.959C145.527 216.793 145.86 216.501 146.068 216.085Z" fill="white"/>
<path d="M0.915141 139.703H0V229.357H0.915141V139.703Z" fill="#ACACAC"/>
<path d="M163 139.703H162.085V229.357H163V139.703Z" fill="#ACACAC"/>
<path d="M128.054 0H96.8927V32.0342H129.343V65.7742H31.2849V32.0342H63.9848V0H34.1971C15.4342 0 0.166016 15.2682 0.166016 34.0311V97.7251H128.095C146.858 97.7251 162.126 82.4569 162.126 63.694V34.0311C162.085 15.2682 146.816 0 128.054 0Z" fill="white"/>
<path d="M63.9438 65.7742H31.2441V32.0342H63.9438V0H34.1563C15.3934 0 0.125 15.2682 0.125 34.0311V97.7251H63.9854V65.7742H63.9438Z" fill="url(#paint0_linear_180392_249814)"/>
<path d="M63.9434 0V131.215L96.893 97.7668V32.0342L63.9434 0Z" fill="url(#paint1_linear_180392_249814)"/>
</g>
<defs>
<linearGradient id="paint0_linear_180392_249814" x1="0.11722" y1="48.8738" x2="61.5296" y2="48.8738" gradientUnits="userSpaceOnUse">
<stop stop-color="#DADADA"/>
<stop offset="0.010525" stop-color="#FFFCF9"/>
<stop offset="0.1816" stop-color="#F8F6F3"/>
<stop offset="0.4268" stop-color="#E5E3E2"/>
<stop offset="0.7153" stop-color="#C6C6C7"/>
<stop offset="1" stop-color="#A1A2A6"/>
</linearGradient>
<linearGradient id="paint1_linear_180392_249814" x1="80.4198" y1="-0.00220495" x2="80.4198" y2="131.215" gradientUnits="userSpaceOnUse">
<stop stop-color="#DADADA"/>
<stop offset="0.010525" stop-color="#FFFCF9"/>
<stop offset="1" stop-color="white"/>
</linearGradient>
<clipPath id="clip0_180392_249814">
<rect width="163" height="230" fill="white"/>
</clipPath>
</defs>
</svg>
