<svg width="32" height="36" viewBox="0 0 32 36" fill="none" xmlns="http://www.w3.org/2000/svg">
<g clip-path="url(#clip0_435_17146)">
<path d="M26.85 7.16558H17.55V5.01108C18.015 4.59258 18.325 3.97258 18.325 3.29058C18.325 2.00408 17.2865 0.965576 16 0.965576C14.7135 0.965576 13.675 2.00408 13.675 3.29058C13.675 3.97258 13.985 4.59258 14.45 5.01108V7.16558H5.15C2.5925 7.16558 0.5 9.25808 0.5 11.8156V26.3856C0.5 28.9431 2.5925 31.0356 5.15 31.0356H21.704L26.571 34.4611C27.1135 34.8486 27.7335 35.0346 28.369 35.0346C28.865 35.0346 29.361 34.9106 29.8105 34.6781C30.849 34.1356 31.5 33.0661 31.5 31.9036V11.8156C31.5 9.25808 29.4075 7.16558 26.85 7.16558ZM28.369 31.9501L23.1145 28.2456C22.851 28.0596 22.541 27.9666 22.2155 27.9666H5.15C4.2975 27.9666 3.6 27.2691 3.6 26.4166V11.8156C3.6 10.9631 4.2975 10.2656 5.15 10.2656H26.85C27.7025 10.2656 28.4 10.9631 28.4 11.8156L28.369 31.9501Z" fill="white"/>
<path d="M11.35 18.0077C12.2025 18.0077 12.9 17.3106 12.9 16.4585V14.9092C12.9 14.057 12.2025 13.3599 11.35 13.3599C10.4975 13.3599 9.80005 14.057 9.80005 14.9092V16.4585C9.80005 17.3106 10.4975 18.0077 11.35 18.0077Z" fill="white"/>
<path d="M20.6501 18.0077C21.5026 18.0077 22.2001 17.3106 22.2001 16.4585V14.9092C22.2001 14.057 21.5026 13.3599 20.6501 13.3599C19.7976 13.3599 19.1001 14.057 19.1001 14.9092V16.4585C19.1001 17.3106 19.7976 18.0077 20.6501 18.0077Z" fill="white"/>
<path d="M23.037 19.8206C22.324 19.3713 21.363 19.5727 20.898 20.2853C20.836 20.3783 19.3015 22.6713 16 22.6713C12.6985 22.6713 11.1795 20.4093 11.102 20.2853C10.6525 19.5727 9.69147 19.3558 8.97847 19.8051C8.24997 20.2544 8.03297 21.2149 8.48247 21.9431C8.57547 22.098 10.9315 25.7698 16 25.7698C21.0685 25.7698 23.4245 22.098 23.5175 21.9431C23.967 21.2304 23.75 20.2853 23.037 19.8206Z" fill="white"/>
</g>
<defs>
<clipPath id="clip0_435_17146">
<rect width="31" height="34.069" fill="white" transform="translate(0.5 0.965576)"/>
</clipPath>
</defs>
</svg>
